<svg width="16" height="16" viewBox="0 0 16 16" fill="none" xmlns="http://www.w3.org/2000/svg">
<path d="M9.98309 2.01285L10.6231 0.858182C10.6313 0.843386 10.6365 0.827123 10.6384 0.810321C10.6403 0.793519 10.6388 0.776507 10.6342 0.760257C10.6295 0.744007 10.6217 0.728836 10.6111 0.715612C10.6006 0.702387 10.5876 0.691367 10.5728 0.683182C10.558 0.674996 10.5417 0.669804 10.5249 0.667904C10.5081 0.666003 10.4911 0.667431 10.4748 0.672105C10.4586 0.676778 10.4434 0.684607 10.4302 0.695144C10.417 0.705681 10.4059 0.718719 10.3978 0.733515L9.75109 1.90018C9.19906 1.65815 8.60285 1.53319 8.00009 1.53319C7.39733 1.53319 6.80112 1.65815 6.24909 1.90018L5.60242 0.733515C5.58589 0.703457 5.5581 0.681197 5.52515 0.671633C5.49221 0.662069 5.45682 0.665983 5.42676 0.682515C5.3967 0.699047 5.37444 0.726842 5.36488 0.759786C5.35531 0.79273 5.35923 0.828124 5.37576 0.858182L6.01576 2.01285C5.40682 2.31318 4.89233 2.77538 4.52872 3.34879C4.16511 3.92219 3.96642 4.58465 3.95442 5.26351H12.0458C12.0336 4.58451 11.8347 3.92195 11.4709 3.34854C11.107 2.77512 10.5923 2.31299 9.98309 2.01285ZM6.13309 3.78285C6.06621 3.78285 6.00084 3.76301 5.94524 3.72584C5.88964 3.68867 5.84632 3.63584 5.82076 3.57404C5.79519 3.51224 5.78854 3.44425 5.80163 3.37866C5.81473 3.31308 5.84699 3.25285 5.89433 3.20561C5.94166 3.15837 6.00195 3.12623 6.06756 3.11326C6.13317 3.1003 6.20115 3.10708 6.2629 3.13277C6.32465 3.15845 6.37739 3.20188 6.41445 3.25755C6.45151 3.31322 6.47122 3.37864 6.47109 3.44551C6.47091 3.53504 6.43523 3.62084 6.37186 3.68409C6.30849 3.74733 6.22262 3.78285 6.13309 3.78285ZM9.86776 3.78285C9.80088 3.78285 9.7355 3.76301 9.67991 3.72584C9.62431 3.68867 9.58099 3.63584 9.55542 3.57404C9.52986 3.51224 9.52321 3.44425 9.5363 3.37866C9.5494 3.31308 9.58165 3.25285 9.62899 3.20561C9.67633 3.15837 9.73662 3.12623 9.80223 3.11326C9.86784 3.1003 9.93582 3.10708 9.99757 3.13277C10.0593 3.15845 10.1121 3.20188 10.1491 3.25755C10.1862 3.31322 10.2059 3.37864 10.2058 3.44551C10.2056 3.53504 10.1699 3.62084 10.1065 3.68409C10.0432 3.74733 9.95728 3.78285 9.86776 3.78285ZM3.95309 11.4475C3.95292 11.5762 3.97815 11.7037 4.02734 11.8227C4.07654 11.9416 4.14873 12.0497 4.23977 12.1406C4.33082 12.2316 4.43893 12.3037 4.5579 12.3528C4.67688 12.402 4.80438 12.4271 4.93309 12.4268H5.58176V14.4268C5.58176 14.6674 5.67732 14.8981 5.84741 15.0682C6.01751 15.2383 6.24821 15.3338 6.48876 15.3338C6.72931 15.3338 6.96001 15.2383 7.1301 15.0682C7.3002 14.8981 7.39576 14.6674 7.39576 14.4268V12.4268H8.60509V14.4268C8.60509 14.6673 8.70061 14.8979 8.87065 15.068C9.04068 15.238 9.27129 15.3335 9.51176 15.3335C9.75222 15.3335 9.98283 15.238 10.1529 15.068C10.3229 14.8979 10.4184 14.6673 10.4184 14.4268V12.4268H11.0678C11.1963 12.4269 11.3236 12.4017 11.4424 12.3525C11.5612 12.3034 11.6691 12.2313 11.76 12.1404C11.8509 12.0495 11.923 11.9416 11.9721 11.8228C12.0213 11.704 12.0465 11.5767 12.0464 11.4482V5.58351H3.95309V11.4475ZM2.70842 5.42751C2.46795 5.42787 2.23744 5.5236 2.06747 5.6937C1.89749 5.8638 1.80193 6.09438 1.80176 6.33485V10.1142C1.80176 10.2332 1.82521 10.3511 1.87077 10.4611C1.91634 10.5711 1.98312 10.6711 2.06731 10.7553C2.15151 10.8395 2.25146 10.9063 2.36146 10.9518C2.47146 10.9974 2.58936 11.0208 2.70842 11.0208C2.82749 11.0208 2.94539 10.9974 3.05539 10.9518C3.16539 10.9063 3.26534 10.8395 3.34953 10.7553C3.43373 10.6711 3.50051 10.5711 3.54608 10.4611C3.59164 10.3511 3.61509 10.2332 3.61509 10.1142V6.33485C3.61474 6.09449 3.5191 5.86408 3.34914 5.69413C3.17919 5.52417 2.94878 5.42853 2.70842 5.42818V5.42751ZM13.2898 5.42751C13.0493 5.42787 12.8188 5.5236 12.6488 5.6937C12.4788 5.8638 12.3833 6.09438 12.3831 6.33485V10.1142C12.3831 10.2332 12.4065 10.3511 12.4521 10.4611C12.4977 10.5711 12.5645 10.6711 12.6486 10.7553C12.7328 10.8395 12.8328 10.9063 12.9428 10.9518C13.0528 10.9974 13.1707 11.0208 13.2898 11.0208C13.4088 11.0208 13.5267 10.9974 13.6367 10.9518C13.7467 10.9063 13.8467 10.8395 13.9309 10.7553C14.0151 10.6711 14.0818 10.5711 14.1274 10.4611C14.173 10.3511 14.1964 10.2332 14.1964 10.1142V6.33485C14.1961 6.09449 14.1004 5.86408 13.9305 5.69413C13.7605 5.52417 13.5301 5.42853 13.2898 5.42818V5.42751Z" fill="white"/>
</svg>
